<svg viewBox="0 0 900 620" xmlns="http://www.w3.org/2000/svg" style="background:#060910;">
  <defs>
    <linearGradient id="bgGrad" x1="0%" y1="0%" x2="100%" y2="100%">
      <stop offset="0%" style="stop-color:#060910"/>
      <stop offset="100%" style="stop-color:#0c1118"/>
    </linearGradient>
    <filter id="glow-safe">
      <feGaussianBlur stdDeviation="3" result="blur"/>
      <feMerge><feMergeNode in="blur"/><feMergeNode in="SourceGraphic"/></feMerge>
    </filter>
    <filter id="glow-fire">
      <feGaussianBlur stdDeviation="4" result="blur"/>
      <feMerge><feMergeNode in="blur"/><feMergeNode in="SourceGraphic"/></feMerge>
    </filter>
    <filter id="glow-purple">
      <feGaussianBlur stdDeviation="3" result="blur"/>
      <feMerge><feMergeNode in="blur"/><feMergeNode in="SourceGraphic"/></feMerge>
    </filter>
    <marker id="arrow-safe" markerWidth="8" markerHeight="8" refX="6" refY="3" orient="auto">
      <path d="M0,0 L0,6 L8,3 z" fill="#00d68f"/>
    </marker>
    <marker id="arrow-danger" markerWidth="8" markerHeight="8" refX="6" refY="3" orient="auto">
      <path d="M0,0 L0,6 L8,3 z" fill="#ff4060"/>
    </marker>
    <marker id="arrow-fire" markerWidth="8" markerHeight="8" refX="6" refY="3" orient="auto">
      <path d="M0,0 L0,6 L8,3 z" fill="#ff6820"/>
    </marker>
    <marker id="arrow-purple" markerWidth="8" markerHeight="8" refX="6" refY="3" orient="auto">
      <path d="M0,0 L0,6 L8,3 z" fill="#a855f7"/>
    </marker>
  </defs>

  <!-- Background -->
  <rect width="900" height="620" fill="url(#bgGrad)"/>

  <!-- Grid lines -->
  <g opacity="0.06" stroke="#4d9fff" stroke-width="0.5">
    <line x1="0" y1="48" x2="900" y2="48"/>
    <line x1="0" y1="96" x2="900" y2="96"/>
    <line x1="0" y1="144" x2="900" y2="144"/>
    <line x1="0" y1="192" x2="900" y2="192"/>
    <line x1="0" y1="240" x2="900" y2="240"/>
    <line x1="0" y1="288" x2="900" y2="288"/>
    <line x1="0" y1="336" x2="900" y2="336"/>
    <line x1="0" y1="384" x2="900" y2="384"/>
    <line x1="0" y1="432" x2="900" y2="432"/>
    <line x1="0" y1="480" x2="900" y2="480"/>
    <line x1="0" y1="528" x2="900" y2="528"/>
    <line x1="0" y1="576" x2="900" y2="576"/>
    <line x1="48" y1="0" x2="48" y2="620"/>
    <line x1="96" y1="0" x2="96" y2="620"/>
    <line x1="144" y1="0" x2="144" y2="620"/>
    <line x1="192" y1="0" x2="192" y2="620"/>
    <line x1="240" y1="0" x2="240" y2="620"/>
    <line x1="288" y1="0" x2="288" y2="620"/>
    <line x1="336" y1="0" x2="336" y2="620"/>
    <line x1="384" y1="0" x2="384" y2="620"/>
    <line x1="432" y1="0" x2="432" y2="620"/>
    <line x1="480" y1="0" x2="480" y2="620"/>
    <line x1="528" y1="0" x2="528" y2="620"/>
    <line x1="576" y1="0" x2="576" y2="620"/>
    <line x1="624" y1="0" x2="624" y2="620"/>
    <line x1="672" y1="0" x2="672" y2="620"/>
    <line x1="720" y1="0" x2="720" y2="620"/>
    <line x1="768" y1="0" x2="768" y2="620"/>
    <line x1="816" y1="0" x2="816" y2="620"/>
    <line x1="864" y1="0" x2="864" y2="620"/>
  </g>

  <!-- Title -->
  <text x="450" y="42" text-anchor="middle" font-family="monospace" font-size="11" fill="#4d9fff" letter-spacing="4">AGENT FIREWALL · SYSTEM ARCHITECTURE · MICROSOFT AGENTS LEAGUE 2026</text>
  <text x="450" y="80" text-anchor="middle" font-family="sans-serif" font-size="28" font-weight="700" fill="#e8f4ff">Self-Defending Multi-Agent System</text>

  <!-- ── USER INPUT NODE ── -->
  <rect x="355" y="110" width="190" height="72" rx="8" fill="#0c1118" stroke="#4d9fff" stroke-width="1.5"/>
  <text x="450" y="134" text-anchor="middle" font-size="22">👤</text>
  <text x="450" y="156" text-anchor="middle" font-family="sans-serif" font-size="13" font-weight="600" fill="#e8f4ff">User Input</text>
  <text x="450" y="173" text-anchor="middle" font-family="monospace" font-size="10" fill="#4d9fff" letter-spacing="1">ENTRY POINT</text>

  <!-- Arrow: User → Firewall -->
  <line x1="450" y1="183" x2="450" y2="218" stroke="#ff6820" stroke-width="2" marker-end="url(#arrow-fire)"/>
  <rect x="330" y="192" width="140" height="18" rx="3" fill="#0c1118"/>
  <text x="400" y="204" text-anchor="middle" font-family="monospace" font-size="10" fill="#ff6820">⚠ may contain injection</text>

  <!-- ── FIREWALL NODE (hero) ── -->
  <rect x="310" y="222" width="280" height="88" rx="8" fill="#0c1118" stroke="#ff6820" stroke-width="2.5"/>
  <rect x="310" y="222" width="280" height="88" rx="8" fill="none" stroke="#ff6820" stroke-width="1" opacity="0.3"/>
  <text x="450" y="252" text-anchor="middle" font-size="22">🔥</text>
  <text x="450" y="274" text-anchor="middle" font-family="sans-serif" font-size="14" font-weight="700" fill="#ff6820">Security Guardian</text>
  <text x="450" y="291" text-anchor="middle" font-family="monospace" font-size="10" fill="#b8ccd8">Scans · Detects · Blocks · Logs</text>
  <text x="450" y="304" text-anchor="middle" font-family="monospace" font-size="9" fill="#4a6878">risk_score &gt; 0.7 = BLOCKED</text>
  <text x="354" y="236" text-anchor="middle" font-family="monospace" font-size="9" fill="#ff6820" letter-spacing="1">AGENT 2</text>

  <!-- Split arrows from Firewall -->
  <!-- Safe path left -->
  <line x1="310" y1="266" x2="210" y2="266" stroke="#00d68f" stroke-width="2" marker-end="url(#arrow-safe)"/>
  <text x="258" y="258" text-anchor="middle" font-family="monospace" font-size="10" fill="#00d68f">✓ SAFE</text>
  <line x1="160" y1="266" x2="160" y2="318" stroke="#00d68f" stroke-width="2" marker-end="url(#arrow-safe)"/>

  <!-- Blocked path right -->
  <line x1="590" y1="266" x2="690" y2="266" stroke="#ff4060" stroke-width="2" marker-end="url(#arrow-danger)"/>
  <text x="638" y="258" text-anchor="middle" font-family="monospace" font-size="10" fill="#ff4060">✗ BLOCKED</text>

  <!-- ── THREAT LOG NODE ── -->
  <rect x="690" y="236" width="168" height="60" rx="8" fill="#0c1118" stroke="#ff4060" stroke-width="1.5"/>
  <text x="774" y="262" text-anchor="middle" font-size="18">📋</text>
  <text x="774" y="280" text-anchor="middle" font-family="sans-serif" font-size="12" font-weight="600" fill="#e8f4ff">Threat Log</text>
  <text x="774" y="294" text-anchor="middle" font-family="monospace" font-size="9" fill="#ff4060">threats.json</text>

  <!-- ── ORCHESTRATOR NODE ── -->
  <rect x="60" y="322" width="200" height="80" rx="8" fill="#0c1118" stroke="#00d68f" stroke-width="1.5"/>
  <text x="160" y="350" text-anchor="middle" font-size="20">🧠</text>
  <text x="160" y="371" text-anchor="middle" font-family="sans-serif" font-size="13" font-weight="600" fill="#e8f4ff">Orchestrator</text>
  <text x="160" y="387" text-anchor="middle" font-family="monospace" font-size="10" fill="#b8ccd8">Plans · Delegates</text>
  <text x="100" y="336" text-anchor="middle" font-family="monospace" font-size="9" fill="#00d68f" letter-spacing="1">AGENT 1</text>

  <!-- Arrow: Orchestrator → Executor -->
  <line x1="260" y1="362" x2="318" y2="362" stroke="#ffaa00" stroke-width="2" marker-end="url(#arrow-safe)"/>
  <text x="290" y="354" text-anchor="middle" font-family="monospace" font-size="9" fill="#ffaa00">delegate</text>

  <!-- ── EXECUTOR NODE ── -->
  <rect x="320" y="322" width="200" height="80" rx="8" fill="#0c1118" stroke="#ffaa00" stroke-width="1.5"/>
  <text x="420" y="350" text-anchor="middle" font-size="20">🔧</text>
  <text x="420" y="371" text-anchor="middle" font-family="sans-serif" font-size="13" font-weight="600" fill="#e8f4ff">Executor</text>
  <text x="420" y="387" text-anchor="middle" font-family="monospace" font-size="10" fill="#b8ccd8">Tool Calls · M365 · Planner</text>
  <text x="360" y="336" text-anchor="middle" font-family="monospace" font-size="9" fill="#ffaa00" letter-spacing="1">AGENT 3</text>

  <!-- Arrow: Executor → Verifier -->
  <line x1="520" y1="362" x2="578" y2="362" stroke="#a855f7" stroke-width="2" marker-end="url(#arrow-purple)"/>
  <text x="550" y="354" text-anchor="middle" font-family="monospace" font-size="9" fill="#a855f7">output</text>

  <!-- ── VERIFIER NODE ── -->
  <rect x="580" y="322" width="200" height="80" rx="8" fill="#0c1118" stroke="#a855f7" stroke-width="1.5"/>
  <text x="680" y="350" text-anchor="middle" font-size="20">🔍</text>
  <text x="680" y="371" text-anchor="middle" font-family="sans-serif" font-size="13" font-weight="600" fill="#e8f4ff">Verifier</text>
  <text x="680" y="387" text-anchor="middle" font-family="monospace" font-size="10" fill="#b8ccd8">Hallucination · Consistency</text>
  <text x="620" y="336" text-anchor="middle" font-family="monospace" font-size="9" fill="#a855f7" letter-spacing="1">AGENT 4 · NEW</text>

  <!-- Split from Verifier -->
  <!-- Verified path down -->
  <line x1="680" y1="402" x2="680" y2="448" stroke="#00d68f" stroke-width="2" marker-end="url(#arrow-safe)"/>
  <text x="720" y="432" text-anchor="middle" font-family="monospace" font-size="10" fill="#00d68f">✓ VERIFIED</text>

  <!-- Flagged path right -->
  <line x1="780" y1="362" x2="840" y2="362" stroke="#ff4060" stroke-width="1.5" stroke-dasharray="4,3" marker-end="url(#arrow-danger)"/>
  <text x="860" y="356" text-anchor="middle" font-family="monospace" font-size="9" fill="#ff4060">✗ FLAGGED</text>
  <text x="860" y="368" text-anchor="middle" font-family="monospace" font-size="9" fill="#ff4060">re-run</text>

  <!-- ── FINAL OUTPUT NODE ── -->
  <rect x="580" y="452" width="200" height="72" rx="8" fill="#0c1118" stroke="#00d68f" stroke-width="1.5"/>
  <text x="680" y="479" text-anchor="middle" font-size="20">✅</text>
  <text x="680" y="500" text-anchor="middle" font-family="sans-serif" font-size="13" font-weight="600" fill="#e8f4ff">Final Response</text>
  <text x="680" y="516" text-anchor="middle" font-family="monospace" font-size="10" fill="#00d68f">Safe · Verified · Clean</text>

  <!-- Legend -->
  <rect x="30" y="452" width="400" height="140" rx="8" fill="#0c1118" stroke="#1a2a3a" stroke-width="1"/>
  <text x="230" y="474" text-anchor="middle" font-family="monospace" font-size="10" fill="#4d9fff" letter-spacing="3">ATTACK TYPES BLOCKED</text>
  <line x1="50" y1="480" x2="410" y2="480" stroke="#1a2a3a" stroke-width="1"/>

  <circle cx="60" cy="500" r="5" fill="#ff4060"/>
  <text x="75" y="504" font-family="monospace" font-size="11" fill="#b8ccd8">Prompt Injection — hidden malicious instructions</text>

  <circle cx="60" cy="522" r="5" fill="#ff6820"/>
  <text x="75" y="526" font-family="monospace" font-size="11" fill="#b8ccd8">Jailbreak — developer mode override attempts</text>

  <circle cx="60" cy="544" r="5" fill="#a855f7"/>
  <text x="75" y="548" font-family="monospace" font-size="11" fill="#b8ccd8">Role Impersonation — fake admin credentials</text>

  <circle cx="60" cy="566" r="5" fill="#ffaa00"/>
  <text x="75" y="570" font-family="monospace" font-size="11" fill="#b8ccd8">Data Exfiltration — attempts to leak data</text>

  <!-- Built with -->
  <text x="450" y="600" text-anchor="middle" font-family="monospace" font-size="10" fill="#4a6878" letter-spacing="2">BUILT WITH MICROSOFT AZURE AI FOUNDRY · PYTHON · AZURE AI AGENTS SDK</text>
</svg>
